<!--?xml version="1.0" encoding="utf-8"?-->
<!-- Generator: Adobe Illustrator 19.1.1, SVG Export Plug-In . SVG Version: 6.00 Build 0)  -->
<svg version="1.1" id="_x31_0" xmlns="http://www.w3.org/2000/svg" xmlns:xlink="http://www.w3.org/1999/xlink" x="0px" y="0px" viewBox="0 0 512 512" style="width: 256px; height: 256px; opacity: 1;" xml:space="preserve">
	<style type="text/css">
		.st0{fill:#374149;}
	</style>
	<g>
		<path class="st0" d="M508.439,242.883c-5.015-24.148-15.332-47.965-29.957-69.566c25.61-35.468,41.695-70.019,26.031-102.816
			c-6.562-13.832-24.359-37.015-69.566-37.015c-18.214,0-40.609,3.383-69.519,10.57c-31.168-17.215-68.519-26.199-109.422-26.199
			c-40.902,0-78.254,8.984-109.464,26.199c-28.703-7.106-51.554-10.57-69.477-10.57c-45.206,0-63.003,23.183-69.566,36.973
			c-15.664,32.839,0.422,67.347,25.988,102.858c-14.582,21.602-24.902,45.418-29.914,69.566c-6.227,29.914-4.262,58.906,5.472,83.851
			L2.612,347.12c-8.187,25.95,5.516,53.23,31.254,62.172l22.222,7.683l1.922,10.738c4.262,23.817,24.946,41.114,49.137,41.114
			c1.293,0,2.672-0.086,3.969-0.168l41.652-3.301c26.281,13.16,62.086,28.785,103.238,28.785c41.153,0,76.957-15.625,103.238-28.785
			l41.652,3.301c1.297,0.082,2.633,0.168,3.969,0.168c24.191,0,44.832-17.297,49.136-41.114l1.922-10.738l22.222-7.683
			c25.738-8.942,39.442-36.222,31.254-62.172l-6.434-20.386C512.657,301.789,514.665,272.796,508.439,242.883z M465.571,360.952
			c0.629,2.004-0.461,4.219-2.465,4.887l-47.667,16.542l-6.688,37.226c-0.332,1.883-1.965,3.262-3.886,3.262
			c-0.082,0-0.207-0.043-0.29-0.043l-54.691-4.348c-28.285,14.668-58.953,29.707-93.878,29.707
			c-34.968,0-65.594-15.039-93.878-29.707l-54.691,4.348c-0.082,0-0.207,0.043-0.289,0.043c-1.922,0-3.555-1.379-3.887-3.262
			l-6.687-37.226L48.905,365.84c-2.003-0.668-3.136-2.883-2.465-4.887l11.95-37.98c-23.985-37.477-13.539-101.523,33.801-148.902
			c-35.43-43.703-57.199-78.546-37.02-90.328c0,0,0,0,0.043,0c0.543-0.082,1.129-0.164,1.797-0.25
			c1.586-0.332,3.133-0.332,4.844-0.375c1.672-0.125,3.718,0.043,5.894,0.25c1.086,0,2.172,0.294,3.297,0.543
			c1.129,0.25,2.301,0.332,3.426,0.836c1.172,0.375,2.34,0.793,3.512,1.211c1.168,0.542,2.34,1.086,3.508,1.671
			c2.343,1.379,4.679,2.758,7.023,4.637c1.168,0.794,2.297,1.758,3.465,2.801c1.129,1.043,2.297,1.961,3.382,3.09
			c9.028,8.691,17.383,19.386,23.817,27.366c4.61,5.805,8.086,10.196,9.71,12.242l0.914,1.18l0.012-0.012
			c0.035,0.043,0.098,0.125,0.098,0.125l21.262-20.226l1.906-1.797l-0.012-0.008l0.117-0.113c0,0-5.222-4.594-13.034-11.446
			c-5.535-4.801-12.367-10.878-20.254-17.023c-1.89-1.523-3.836-3.058-5.836-4.594c11.626,2.293,24.887,5.484,40.086,9.71
			c25.484-18.594,60.706-29.75,101.858-29.75c41.153,0,76.371,11.156,101.859,29.75c12.094-3.363,22.93-6.054,32.726-8.175
			c2.523-0.508,5.016-0.993,7.414-1.406c-10.454,7.59-19.313,15.523-26.188,21.488c-5.484,4.836-9.652,8.504-11.656,10.27
			l-1.226,1.058l0.012,0.012c-0.043,0.035-0.122,0.106-0.122,0.106l21.293,20.266l1.852,1.781l0.008-0.011l0.117,0.109
			c0,0,4.305-5.434,10.738-13.535c6.434-7.98,14.789-18.675,23.816-27.366c1.086-1.13,2.254-2.047,3.383-3.09
			c1.168-1.042,2.297-2.007,3.469-2.801c2.297-1.878,4.679-3.258,7.019-4.637c1.168-0.586,2.34-1.129,3.508-1.671
			c1.172-0.418,2.34-0.836,3.469-1.211c1.168-0.504,2.339-0.586,3.469-0.836c1.125-0.25,2.21-0.543,3.297-0.543
			c2.175-0.206,4.218-0.374,5.89-0.25c1.714,0.043,3.262,0.043,4.847,0.375c0.668,0.086,1.254,0.168,1.798,0.25
			c0.042,0,0.042,0,0.042,0c20.137,11.782-1.633,46.625-37.015,90.328c47.293,47.378,57.738,111.425,33.797,148.902L465.571,360.952z
			" style="fill: rgb(75, 75, 75);"></path>
		<path class="st0" d="M217.401,336.636l2.675,22.558c1.418,11.91,11.531,20.89,23.562,20.89h24.734
			c11.992,0,22.141-8.98,23.562-20.89l2.672-22.558c1.676-14.121-9.316-26.531-23.562-26.531h-30.078
			C226.717,310.105,215.69,322.516,217.401,336.636z M246.065,325.941c5.511,0,9.941,4.305,9.941,9.566c0,5.305-4.43,9.61-9.941,9.61
			c-5.477,0-9.902-4.305-9.902-9.61C236.163,330.246,240.588,325.941,246.065,325.941z" style="fill: rgb(75, 75, 75);"></path>
		<path class="st0" d="M177.042,225.711c-2.84-1.336-5.848-1.965-8.856-1.965c-0.734,0-1.469,0.078-2.203,0.149
			c-0.101-0.008-0.202-0.004-0.304-0.012c0.027,0.004,0.05,0.02,0.078,0.027c-0.234,0.024-0.469,0.02-0.703,0.047
			c5.262,0.582,9.317,4.844,9.317,10.027c0,5.554-4.68,10.066-10.527,10.066c-5.809,0-10.531-4.512-10.531-10.066
			c0-1.785,0.606-3.359,1.445-4.797c0.391-0.574,0.68-1.211,1.23-1.668c-0.113,0.07-0.206,0.16-0.316,0.23
			c0.094-0.11,0.133-0.262,0.23-0.367c-0.641,0.398-1.137,1.012-1.742,1.469c-0.762,0.57-1.484,1.176-2.179,1.832
			c-1.098,1.027-2.094,2.153-3.024,3.39c-0.644,0.856-1.234,1.75-1.781,2.688c-0.387,0.668-0.918,1.187-1.258,1.902
			c-5.891,12.492-1.504,26.945,9.777,32.293c2.84,1.339,5.848,1.965,8.855,1.965c8.942,0,17.84-5.602,22.27-14.957
			C192.71,245.472,188.323,231.059,177.042,225.711z" style="fill: rgb(75, 75, 75);"></path>
		<path class="st0" d="M354.736,229.14c-0.801-0.687-1.618-1.355-2.481-1.953c0.102,0.106,0.137,0.25,0.234,0.359
			c-0.121-0.074-0.226-0.176-0.351-0.25c1.714,1.758,2.718,4.098,2.718,6.687c0,5.554-4.679,10.066-10.527,10.066
			c-5.809,0-10.531-4.512-10.531-10.066c0-4.062,2.551-7.488,6.156-9.09c0.989-0.39,2.012-0.723,3.145-0.782
			c-0.141-0.015-0.281-0.011-0.422-0.027c0.156-0.023,0.281-0.114,0.438-0.129c-1.043-0.125-2.047-0.211-3.09-0.211
			c-3.007,0-6.015,0.629-8.859,1.965c-11.277,5.348-15.668,19.762-9.777,32.254c4.43,9.355,13.328,14.957,22.269,14.957
			c3.012,0,6.02-0.626,8.859-1.965c11.278-5.348,15.668-19.801,9.778-32.293C360.455,234.785,357.822,231.586,354.736,229.14z" style="fill: rgb(75, 75, 75);"></path>
		<path class="st0" d="M359.451,181.758c-4.144-1.855-8.363-3.082-12.594-4.019c-0.187-0.043-0.374-0.078-0.562-0.118
			c-6.144-1.305-12.27-1.66-18.258-1.082c-0.191,0.019-0.386,0.039-0.578,0.058c-5.507,0.586-10.832,1.942-15.878,4.066
			c-0.321,0.133-0.629,0.278-0.946,0.418c-4.922,2.18-9.519,5.07-13.699,8.684c-0.156,0.137-0.305,0.281-0.457,0.418
			c-1.336,1.18-2.722,2.282-3.957,3.61c-15.375,16.461-18.719,39.48-8.481,58.613c5.722,10.738,11.574,18.801,16.75,25.906
			c10.277,14.121,17.09,23.438,17.09,44.492c0,42.91-17.754,72.281-54.313,75.75l-7.562,0.707l-7.562-0.707
			c-36.558-3.469-54.312-32.84-54.312-75.75c0-21.054,6.77-30.371,17.086-44.492c5.184-7.106,11.031-15.168,16.754-25.906
			c10.234-19.133,6.894-42.152-8.481-58.613c-1.238-1.328-2.629-2.434-3.965-3.617c-0.153-0.133-0.297-0.278-0.45-0.406
			c-4.179-3.618-8.781-6.508-13.706-8.691c-0.313-0.137-0.622-0.282-0.934-0.41c-5.051-2.129-10.375-3.485-15.883-4.07
			c-0.195-0.019-0.386-0.039-0.578-0.058c-5.989-0.574-12.114-0.223-18.258,1.082c-0.187,0.039-0.374,0.074-0.566,0.118
			c-4.226,0.938-8.449,2.164-12.594,4.019c-21.683,9.734-38.976,28.453-47.499,51.39c-7.856,21.266-7.27,44.285,1.586,63.129
			c9.106,19.344,23.019,27.535,36.598,29.953c11.449,2.051,20.641,10.531,22.855,21.981c2.84,14.703,8.817,31.625,20.973,45.37
			c14.457,16.418,34.762,25.191,60.289,26.07l8.648,0.293l8.649-0.293c25.527-0.879,45.832-9.652,60.289-26.07
			c12.156-13.746,18.133-30.667,20.973-45.37c2.214-11.45,11.406-19.93,22.851-21.981c13.539-2.418,27.492-10.609,36.602-29.953
			c8.855-18.844,9.441-41.863,1.586-63.129C398.431,210.211,381.139,191.492,359.451,181.758z M164.549,285.457
			c-4.972,0-9.734-1.09-14.202-3.176c-8.73-4.137-15.082-11.618-17.965-21.141c-2.758-9.109-1.965-18.969,2.21-27.824
			c6.352-13.414,19.512-22.102,33.594-22.102c4.93,0,9.734,1.043,14.203,3.172c17.508,8.278,24.566,30.211,15.75,48.926
			C191.791,276.765,178.631,285.457,164.549,285.457z M357.865,282.281c-4.469,2.086-9.234,3.176-14.207,3.176
			c-14.078,0-27.238-8.692-33.59-22.145c-8.859-18.714-1.754-40.648,15.75-48.926c4.472-2.129,9.273-3.172,14.206-3.172
			c14.078,0,27.238,8.688,33.59,22.102C382.475,252.032,375.369,274.008,357.865,282.281z" style="fill: rgb(75, 75, 75);"></path>
		<path class="st0" d="M203.447,141.399c11.863,3.554,22.058,10.238,28.954,15.586c3.133,2.465,7.605-0.25,6.851-4.136l-5.766-29.082
			c-0.586-3.09-4.262-4.469-6.726-2.546l-5.39,4.094c-1.294,1.004-3.09,1.172-4.551,0.375l-6.687-3.508
			c-3.008-1.629-6.266,0.793-6.266,3.762c0,0.629,0.168,1.293,0.5,1.965c1.086,2.047,0.336,4.55-1.672,5.68l-0.082,0.086
			C199.354,135.508,199.854,140.356,203.447,141.399z" style="fill: rgb(75, 75, 75);"></path>
		<path class="st0" d="M279.611,156.984c6.851-5.347,17.086-12.031,28.953-15.586c3.551-1.043,4.094-5.89,0.836-7.726l-0.086-0.086
			c-2.004-1.13-2.754-3.633-1.668-5.68c0.332-0.672,0.5-1.336,0.5-1.965c0-2.969-3.258-5.39-6.266-3.762l-6.688,3.508
			c-1.461,0.797-3.258,0.629-4.55-0.375l-5.39-4.094c-2.508-1.922-6.145-0.543-6.77,2.546l-5.722,29.082
			C272.006,156.735,276.479,159.449,279.611,156.984z" style="fill: rgb(75, 75, 75);"></path>
	</g>
	</svg>
	